# xmcd
#
# Track frame offsets: 
#        150
#        17150
#        38764
#        51326
#        72401
#        93836
#        108494
#        122002
#        137302
#        156946
#        176134
#        191308
#        204238
#        218618
#
# Disc length: 3162 seconds
#
# Revision: 0
# Processed by: cddbd v1.5.2PL0 Copyright (c) Steve Scherf et al.
# Submitted via: ExactAudioCopy v1.3
#
DISCID=bb0c580e
DTITLE=Dura and Blues Club - Buterfláje leca
DYEAR=2019
DGENRE=Blues
TTITLE0=Krásny pocit
TTITLE1=Autíčko
TTITLE2=Hudba
TTITLE3=Zdá sa mi
TTITLE4=Si tu
TTITLE5=Vese álom boogie
TTITLE6=Živit, ty rieka divokái
TTITLE7=Pieseň moruši
TTITLE8=Na vlnách něžnosti
TTITLE9=Nie sme zbláznení
TTITLE10=Buterfláje leca
TTITLE11=E pericoloso sporgersi
TTITLE12=Ty si tá pieseň
TTITLE13=Modroblues
EXTD=
EXTT0=
EXTT1=
EXTT2=
EXTT3=
EXTT4=
EXTT5=
EXTT6=
EXTT7=
EXTT8=
EXTT9=
EXTT10=
EXTT11=
EXTT12=
EXTT13=
PLAYORDER=
